<svg xmlns="http://www.w3.org/2000/svg" aria-hidden="true" style="position:absolute;width:0;height:0;overflow:hidden">
  <defs>
    <symbol id="icon-viber" viewBox="0 0 32 32">
      <path d="M16 0C8.1 0 0 1.7 0 14c0 6.6 2.3 10.7 7 12.6v3.7c0 .7.4 1.3 1 1.6.2.1.5.1.7.1.4 0 .9-.2 1.2-.5l3.6-3.6c.8 0 1.6.1 2.5.1 7.9 0 16-1.7 16-14S23.9 0 16 0zm-.5 10.2c1.8 0 3.3 1.5 3.3 3.3 0 .6-.4 1-1 1s-1-.4-1-1c0-.7-.6-1.3-1.3-1.3-.6 0-1-.4-1-1s.4-1 1-1zm-1-2.1c0-.6.4-1 1-1 3.5 0 6.4 2.9 6.4 6.4 0 .6-.4 1-1 1s-1-.4-1-1c0-2.4-2-4.4-4.4-4.4-.6 0-1-.5-1-1zm8.2 12.4c-.4 1.2-1.9 2.2-3.2 2.4-.3.1-.6.1-1 .1-.8 0-2-.2-4.1-1.1-2.4-1-4.8-3.1-6.7-5.8V16c-.6-.9-1.7-2.6-1.7-4.4 0-2.2 1.1-3.3 1.5-3.8.6-.5 1.3-.8 2.1-.8h.5c.7 0 1.2.2 1.7 1.2l.4.8c.3.8.7 1.7.8 1.8.3.6.3 1.1 0 1.6-.1.3-.3.5-.5.7-.1.2-.2.3-.3.3l-.2.2c.3.5.9 1.4 1.7 2.1 1.2 1.1 2.1 1.4 2.6 1.6.2-.2.4-.6.7-.9l.1-.2c.5-.7 1.3-.9 2.1-.6.4.2 2.6 1.2 2.6 1.2l.2.1c.3.2.7.3.9.7.3.9 0 2.2-.2 2.9zm1.3-6c-.6 0-1-.4-1-1C23 9.4 19.6 6 15.5 6c-.6 0-1-.4-1-1s.4-1 1-1c5.2 0 9.5 4.3 9.5 9.5 0 .6-.4 1-1 1z"/>
    </symbol>
    <symbol id="icon-menu" viewBox="0 0 32 32">
      <path d="M4.799 8.001a1.6 1.6 0 0 1 1.6-1.6h19.2a1.6 1.6 0 0 1 0 3.2h-19.2a1.6 1.6 0 0 1-1.6-1.6zM4.799 16.001a1.6 1.6 0 0 1 1.6-1.6h19.2a1.6 1.6 0 0 1 0 3.2h-19.2a1.6 1.6 0 0 1-1.6-1.6zM4.799 24.001a1.6 1.6 0 0 1 1.6-1.6h19.2a1.6 1.6 0 0 1 0 3.2h-19.2a1.6 1.6 0 0 1-1.6-1.6z"/>
    </symbol>
    <symbol id="icon-frame" viewBox="0 0 32 32">
      <path d="m32 2.667-32 15 10.227 3.156L26 8.5 14.002 21.988l.01.003-.012-.003v7.345l5.735-5.576L27 25.999l5-23.333z"/>
    </symbol>
    <symbol id="icon-facebook" viewBox="0 0 32 32">
      <path d="M21.329 5.313h2.921V.225C23.746.156 22.013 0 19.994 0c-4.212 0-7.097 2.649-7.097 7.519V12H8.249v5.688h4.648V32h5.699V17.689h4.46l.708-5.688h-5.169V8.082c.001-1.644.444-2.769 2.735-2.769z"/>
    </symbol>
    <symbol id="icon-close" viewBox="0 0 32 32">
      <path d="M19.141 16.123 29.817 5.455a2.196 2.196 0 0 0-3.098-3.095L16.043 12.918 5.301 2.184a2.202 2.202 0 0 0-2.983.115 2.193 2.193 0 0 0-.115 2.98l10.72 10.844L2.422 26.484a2.203 2.203 0 0 0-.767 1.582c-.012.302.039.604.15.885.11.282.278.538.492.751s.47.381.752.492a2.203 2.203 0 0 0 2.47-.615l10.479-10.471 10.413 10.405a2.202 2.202 0 0 0 2.983-.115 2.194 2.194 0 0 0 .115-2.979L19.14 16.124z"/>
    </symbol>
  </defs>
</svg>
