<svg aria-hidden="true" style="position: absolute; width: 0; height: 0; overflow: hidden;" version="1.1" xmlns="http://www.w3.org/2000/svg" xmlns:xlink="http://www.w3.org/1999/xlink">
<defs>
<symbol id="icon-logo-header-converted" viewBox="0 0 32 32">
<path d="M12.213 0.323c0 0.356 0.013 0.364 0.365 0.24 0.2-0.071 0.861-0.482 0.861-0.537 0-0.013-0.276-0.023-0.613-0.022l-0.613 0.001v0.317zM8.631 1.972c-0.106 0.087-0.256 0.183-0.332 0.212s-0.139 0.090-0.139 0.134c0 0.053-0.052 0.082-0.147 0.083-0.081 0.001-0.191 0.035-0.245 0.076-0.060 0.046-0.165 0.063-0.272 0.046-0.145-0.024-0.179-0.009-0.204 0.084-0.022 0.085-0.005 0.112 0.072 0.112 0.056 0 0.102 0.031 0.102 0.068 0 0.047-0.064 0.062-0.207 0.048-0.168-0.016-0.223 0.003-0.293 0.103-0.082 0.117-0.089 0.118-0.157 0.025-0.093-0.127-0.282-0.071-0.324 0.097-0.025 0.099-0.059 0.119-0.166 0.098-0.166-0.032-0.294 0.067-0.294 0.227 0 0.097-0.083 0.164-0.42 0.34-0.263 0.137-0.431 0.259-0.448 0.326-0.017 0.066-0.073 0.107-0.143 0.107-0.161 0-0.321 0.095-0.321 0.19 0 0.044-0.035 0.093-0.078 0.11s-0.093 0.078-0.112 0.136c-0.030 0.096-0.047 0.087-0.164-0.085l-0.13-0.192-0.171 0.087c-0.094 0.048-0.224 0.135-0.289 0.194-0.107 0.098-0.111 0.118-0.040 0.219 0.126 0.179 0.091 0.211-0.103 0.091-0.292-0.18-0.353-0.115-0.353 0.377 0 0.408 0.005 0.424 0.142 0.476 0.127 0.048 0.223 0.006 0.908-0.404 0.879-0.526 1.119-0.64 1.149-0.548 0.043 0.128 0.433-0.090 0.558-0.31 0.102-0.181 0.286-0.303 1.426-0.954 0.72-0.411 1.309-0.777 1.309-0.813s0.057-0.067 0.126-0.067 0.17-0.050 0.226-0.111c0.095-0.105 0.096-0.115 0.008-0.179-0.114-0.083-0.121-0.189-0.013-0.189 0.097 0 0.108-0.217 0.016-0.309-0.106-0.106-0.274-0.073-0.478 0.095zM8.107 2.747c0 0.044-0.024 0.080-0.053 0.080s-0.053-0.036-0.053-0.080c0-0.044 0.024-0.080 0.053-0.080s0.053 0.036 0.053 0.080zM26.707 3.145c-0.153 0.12-0.229 0.321-0.121 0.321 0.093 0 0.151 0.164 0.082 0.233-0.038 0.038-0.056 0.031-0.057-0.022-0.003-0.132-0.249-0.277-0.365-0.214-0.083 0.044-0.097 0.099-0.078 0.309 0.041 0.46 0.076 0.607 0.15 0.635 0.040 0.016 0.289-0.083 0.552-0.219 0.631-0.326 0.669-0.479 0.246-0.982-0.164-0.194-0.228-0.204-0.41-0.061zM22.583 5.787c-0.112 0.112-0.239 0.187-0.318 0.187s-0.132 0.031-0.132 0.078c0 0.077-0.068 0.096-0.6 0.163-0.204 0.026-0.253 0.052-0.253 0.136 0 0.057 0.019 0.103 0.043 0.103s0.085 0.031 0.136 0.068c0.081 0.059 0.064 0.069-0.136 0.077-1.446 0.057-2.525 0.183-3.318 0.386-0.232 0.060-0.45 0.108-0.484 0.108s-0.103-0.132-0.154-0.292c-0.114-0.362-0.377-0.718-0.622-0.841-0.257-0.13-0.87-0.127-1.119 0.004-0.228 0.12-0.5 0.508-0.618 0.885l-0.089 0.282-0.326-0.099c-0.925-0.282-2.083-0.41-2.859-0.316-0.684 0.083-1.135 0.202-2.64 0.698-1.421 0.468-1.787 0.563-2.373 0.615-0.699 0.062-1.67-0.163-1.843-0.428-0.044-0.067-0.103-0.263-0.13-0.436-0.065-0.403-0.263-0.607-0.593-0.607-0.177 0-0.252 0.034-0.399 0.181-0.152 0.152-0.181 0.22-0.181 0.417 0 0.342 0.146 0.732 0.295 0.789 0.067 0.026 0.138 0.094 0.156 0.153 0.045 0.143 0.515 0.446 0.918 0.592l0.329 0.119-0.070 0.194c-0.215 0.599-0.966 2.399-1.043 2.499-0.050 0.065-0.122 0.233-0.16 0.373s-0.212 0.592-0.387 1.002c-0.175 0.411-0.529 1.275-0.787 1.92s-0.575 1.413-0.706 1.707-0.306 0.731-0.391 0.973c-0.085 0.242-0.182 0.44-0.216 0.44s-0.077 0.060-0.095 0.133c-0.029 0.114-0.064 0.133-0.243 0.133-0.199 0-0.216 0.013-0.329 0.26l-0.119 0.26-0.112-0.166c-0.141-0.21-0.252-0.231-0.455-0.087l-0.16 0.114v0.556c0 0.306 0.018 0.556 0.040 0.556s0.23-0.109 0.461-0.241c0.232-0.132 0.43-0.232 0.44-0.221s0.004 0.095-0.015 0.188c-0.028 0.142-0.058 0.169-0.187 0.169-0.185 0-0.201 0.108-0.050 0.356 0.23 0.377 1.325 1.049 2.146 1.317 0.792 0.258 1.33 0.312 2.903 0.288l1.434-0.022 0.56-0.172c0.851-0.262 1.59-0.641 1.964-1.008 0.352-0.345 0.504-0.667 0.367-0.776-0.044-0.035-0.252-0.471-0.462-0.97s-0.451-1.063-0.534-1.253c-0.084-0.191-0.241-0.563-0.349-0.827s-0.317-0.756-0.464-1.093c-0.147-0.337-0.43-0.997-0.629-1.467s-0.63-1.465-0.958-2.213c-0.327-0.748-0.653-1.51-0.724-1.694s-0.191-0.452-0.267-0.598c-0.235-0.449-0.233-0.45 0.778-0.493 0.603-0.026 1.164-0.089 1.786-0.2 0.499-0.089 1.225-0.191 1.613-0.227 1.317-0.119 2.668 0.094 4.074 0.644 0.362 0.142 0.751 0.288 0.864 0.324 0.172 0.056 0.2 0.085 0.173 0.181-0.027 0.099-0.282 3.128-0.46 5.485l-0.059 0.784 0.372 0.816c0.204 0.449 0.494 1.116 0.645 1.482s0.33 0.738 0.4 0.825l0.127 0.158 0.033-1.038c0.018-0.571 0.059-2.274 0.092-3.785s0.068-2.757 0.080-2.769c0.012-0.012 0.021 0.914 0.021 2.058s0.016 3.020 0.035 4.169c0.032 1.888 0.044 2.089 0.123 2.089s0.482-0.866 1.373-2.95c0.147-0.345 0.157-0.902 0.042-2.548-0.044-0.628-0.115-1.814-0.159-2.635s-0.094-1.661-0.112-1.867l-0.032-0.373 0.338-0.152c1.139-0.513 1.858-0.733 2.818-0.863 1.127-0.152 2.129-0.090 3.707 0.231 0.825 0.168 1.063 0.195 1.693 0.197 0.403 0.001 0.733 0.009 0.733 0.018s-0.039 0.092-0.087 0.185c-0.099 0.192-0.511 1.327-0.488 1.346 0.032 0.026 0.249 0.133 0.27 0.133 0.012 0 0.090-0.174 0.174-0.387l0.153-0.387 0.060 0.21c0.033 0.116 0.082 0.218 0.109 0.227 0.055 0.018 0.311-0.369 0.366-0.555 0.024-0.079-0.019-0.236-0.127-0.47-0.090-0.194-0.163-0.372-0.163-0.397s0.095-0.061 0.21-0.080c0.254-0.043 0.756-0.336 1.034-0.604 0.459-0.441 0.624-0.969 0.411-1.314-0.17-0.275-0.39-0.378-0.647-0.3-0.264 0.079-0.401 0.262-0.475 0.634-0.033 0.167-0.072 0.344-0.086 0.394-0.035 0.125-0.511 0.293-1.054 0.371-0.552 0.080-1.267 0.011-1.953-0.189-0.875-0.255-2.351-0.793-2.332-0.85 0.011-0.032 0.198-0.163 0.416-0.291 0.505-0.297 0.654-0.432 0.579-0.523-0.040-0.048-0.038-0.102 0.005-0.183 0.034-0.063 0.047-0.173 0.029-0.243-0.026-0.105-0.066-0.128-0.22-0.128-0.143 0-0.232 0.044-0.374 0.187zM16.344 6.889c0.118 0.054 0.136 0.095 0.136 0.318 0 0.199-0.023 0.269-0.103 0.311-0.27 0.144-0.43 0.011-0.43-0.357 0-0.312 0.124-0.397 0.397-0.272zM0.067 6.972c-0.079 0.028-0.096 0.814-0.017 0.814 0.147 0 0.283-0.289 0.156-0.331-0.045-0.015-0.045-0.050 0.002-0.138 0.074-0.137-0.027-0.385-0.141-0.345zM27.383 10.004c-0.283 0.504-0.589 0.855-0.791 0.906-0.1 0.025-0.198-0.017-0.415-0.179-0.368-0.275-0.812-0.495-1.377-0.681-0.422-0.139-0.516-0.15-1.36-0.153-1.071-0.004-1.329 0.050-2.139 0.448-0.604 0.297-0.915 0.533-1.308 0.994-0.765 0.897-1.11 1.879-1.112 3.175-0.003 1.418 0.422 2.453 1.409 3.434 0.733 0.728 1.482 1.206 3.337 2.132 1.113 0.556 1.723 0.948 2.044 1.315 0.576 0.659 0.747 1.44 0.481 2.205-0.14 0.404-0.363 0.881-0.41 0.881-0.026 0-0.13 0.072-0.23 0.16-0.596 0.524-1.683 0.672-2.739 0.374-1.373-0.388-2.668-1.783-3.454-3.72l-0.114-0.28h-0.806v5.12h0.37c0.425 0 0.407 0.016 0.801-0.707 0.124-0.227 0.259-0.413 0.299-0.413s0.111-0.072 0.157-0.16c0.046-0.088 0.1-0.16 0.121-0.16s0.231 0.145 0.465 0.322c1.144 0.864 2.753 1.338 3.978 1.17 1.107-0.151 1.871-0.526 2.609-1.277 0.846-0.862 1.206-1.627 1.33-2.827 0.19-1.839-0.693-3.455-2.597-4.754l-0.546-0.373 0.086-0.131c0.047-0.072 0.137-0.131 0.201-0.131s0.414-0.177 0.781-0.393c0.366-0.216 0.84-0.493 1.052-0.616s0.387-0.246 0.387-0.274 0.068-0.051 0.151-0.051c0.151 0 0.151 0.001 0.296 0.707 0.135 0.659 0.748 3.2 0.813 3.37 0.024 0.063-0.039 0.071-0.378 0.045l-0.407-0.031 0.034 0.155c0.019 0.085 0.053 0.215 0.076 0.288s0.086 0.427 0.141 0.787l0.099 0.653 0.161-0.001c0.379-0.001 1.087-0.27 1.56-0.592 0.326-0.222 0.929-0.768 1.013-0.919 0.095-0.169 0.084-0.223-0.064-0.302-0.073-0.039-0.148-0.121-0.167-0.182s-0.261-0.639-0.538-1.285c-0.277-0.645-0.779-1.833-1.116-2.64-0.828-1.986-0.857-2.051-0.945-2.069-0.090-0.019-0.166 0.305-0.114 0.485 0.019 0.065 0.262 0.658 0.541 1.318s0.592 1.404 0.695 1.653c0.103 0.249 0.401 0.95 0.662 1.556s0.474 1.117 0.474 1.133c0 0.017-0.309 0.030-0.688 0.030-0.732 0-0.752-0.008-0.752-0.275 0-0.209-0.977-4.266-1.056-4.388-0.020-0.031-0.037-0.297-0.037-0.59s-0.006-1.475-0.013-2.627l-0.013-2.093h-0.68l-0.257 0.458zM6.432 10.093c0.020 0.154 0.051 0.388 0.069 0.52l0.033 0.24 1.292 0.030 0.096 0.252c0.053 0.138 0.295 0.707 0.539 1.263 0.368 0.838 0.43 1.019 0.364 1.056-0.097 0.054-0.105 0.312-0.013 0.405 0.053 0.054 0.048 0.060-0.027 0.032-0.051-0.020-0.093-0.066-0.093-0.104 0-0.082-0.132-0.141-0.232-0.102-0.054 0.021-0.066 0.127-0.049 0.438 0.030 0.553 0.035 0.564 0.239 0.523 0.093-0.019 0.187-0.062 0.208-0.096 0.048-0.078 0.527-0.204 0.527-0.139 0 0.046 0.996 2.332 3.307 7.589 0.593 1.349 1.234 2.816 1.425 3.26l0.346 0.807 0.274 0.033c0.481 0.058 0.705 0.041 0.797-0.061 0.085-0.094 0.967-2.117 1.557-3.573 0.381-0.94 0.526-1.118 1.199-1.473 0.271-0.143 0.57-0.327 0.663-0.41s0.237-0.166 0.318-0.187c0.139-0.035 0.145-0.050 0.111-0.25-0.024-0.144-0.015-0.226 0.029-0.253 0.049-0.030 0.050-0.067 0.004-0.153-0.090-0.168-0.334-0.148-0.555 0.047-0.1 0.088-0.21 0.16-0.244 0.16s-0.135 0.038-0.225 0.084c-0.089 0.046-0.175 0.071-0.191 0.055s0.14-0.396 0.347-0.844c0.52-1.126 0.758-1.718 0.758-1.88 0-0.076-0.068-0.275-0.152-0.443s-0.209-0.467-0.28-0.665c-0.081-0.23-0.156-0.36-0.208-0.359s-0.154 0.186-0.288 0.52c-0.114 0.286-0.44 1.059-0.725 1.719s-0.643 1.502-0.797 1.871c-0.294 0.707-0.491 1.022-0.583 0.929-0.029-0.029-0.208-0.413-0.399-0.853s-0.604-1.376-0.92-2.080c-1.213-2.704-2.413-5.547-2.352-5.568 0.146-0.050 1.571-0.915 1.636-0.994 0.059-0.072 0.084-0.597 0.030-0.651-0.007-0.007-0.083-0.027-0.169-0.044-0.127-0.025-0.234 0.019-0.567 0.237-0.528 0.345-0.753 0.46-0.774 0.396-0.009-0.028-0.091-0.040-0.181-0.027-0.12 0.018-0.178 0.063-0.215 0.172-0.028 0.081-0.095 0.159-0.149 0.173-0.078 0.020-0.104-0.014-0.129-0.168-0.017-0.106-0.080-0.289-0.139-0.405s-0.108-0.218-0.108-0.227c0-0.008 0.276-0.015 0.613-0.015h0.613v-1.067h-6.67l0.036 0.28zM5.455 10.373c0.073 0.235 0.173 0.667 0.223 0.96s0.112 0.581 0.138 0.64c0.083 0.184 0.637 2.469 0.637 2.627 0 0.164 0.131 0.722 0.21 0.893 0.027 0.059 0.076 0.275 0.109 0.48s0.166 0.781 0.296 1.28c0.13 0.499 0.263 1.015 0.295 1.147 0.436 1.982 0.491 2.199 0.547 2.416l-0.386-1.769c0.056 0.224 0.102 0.416 0.102 0.427s-1.425 0.024-3.166 0.029l-3.166 0.009 0.124-0.302c0.068-0.166 0.125-0.332 0.126-0.369 0.002-0.081 0.010-0.081 0.189-0.013 0.174 0.066 0.441-0.071 0.486-0.25 0.016-0.064 0.111-0.173 0.211-0.241s0.182-0.154 0.182-0.19 0.056-0.067 0.125-0.067c0.068 0 0.314-0.115 0.547-0.256s0.581-0.344 0.775-0.452 0.393-0.257 0.441-0.331c0.049-0.074 0.134-0.135 0.189-0.135 0.157 0 0.27-0.058 0.27-0.138 0-0.044 0.082-0.087 0.205-0.106l0.205-0.033-0.005-0.355-0.005-0.355-0.189-0.016c-0.224-0.019-0.692 0.219-0.732 0.372-0.014 0.054-0.089 0.112-0.166 0.129s-0.191 0.055-0.254 0.085c-0.063 0.030-0.187 0.039-0.276 0.019-0.129-0.028-0.174-0.014-0.219 0.069-0.042 0.079-0.037 0.12 0.022 0.169 0.113 0.094 0.047 0.16-0.16 0.16-0.138 0-0.189 0.027-0.217 0.116-0.036 0.114-0.038 0.114-0.112-0.027-0.063-0.12-0.093-0.135-0.179-0.089-0.057 0.030-0.129 0.104-0.161 0.162s-0.086 0.102-0.121 0.095c-0.205-0.039-0.346 0.117-0.31 0.342 0.003 0.022-0.042 0.040-0.1 0.040s-0.107-0.011-0.107-0.024c0-0.013 0.092-0.235 0.205-0.493s0.303-0.721 0.423-1.030c0.12-0.309 0.255-0.633 0.301-0.72s0.083-0.18 0.083-0.205c0-0.025 0.204-0.508 0.454-1.073s0.453-1.068 0.453-1.119 0.093-0.288 0.208-0.527c0.114-0.239 0.395-0.897 0.625-1.461s0.433-1.008 0.454-0.987 0.096 0.231 0.169 0.466zM24.326 10.933c0.555 0.145 1.576 0.748 1.633 0.963 0.014 0.055 0.106 0.147 0.203 0.204s0.288 0.244 0.424 0.415c0.311 0.391 0.799 1.383 0.887 1.804 0.037 0.176 0.090 0.335 0.117 0.354 0.074 0.050-0.008 0.153-0.121 0.153-0.054 0-0.137 0.060-0.185 0.133-0.079 0.121-0.122 0.133-0.455 0.133-0.366 0-0.368 0.001-0.403 0.16-0.042 0.192-0.126 0.242-0.489 0.291-0.233 0.031-0.28 0.057-0.308 0.168-0.018 0.072-0.054 0.118-0.079 0.103s-0.121-0.014-0.212 0.005c-0.179 0.036-0.235 0.21-0.086 0.267 0.123 0.047 0.038 0.126-0.136 0.126-0.104 0-0.157 0.027-0.157 0.080 0 0.051-0.051 0.080-0.142 0.080-0.078 0-0.186 0.040-0.24 0.088-0.091 0.082-0.117 0.078-0.404-0.069-0.564-0.287-1.885-1.030-2.124-1.195-0.296-0.203-0.608-0.612-0.835-1.094-0.163-0.345-0.175-0.409-0.175-0.93-0-0.536 0.009-0.578 0.197-0.972 0.479-1.003 1.362-1.485 2.502-1.366 0.194 0.020 0.458 0.064 0.587 0.098zM6.085 11.224c0.027-0.017 0.049 0.026 0.049 0.094s0.071 0.268 0.158 0.443c0.087 0.175 0.159 0.339 0.16 0.364s0.069 0.193 0.152 0.373 0.243 0.563 0.356 0.85c0.113 0.287 0.261 0.598 0.33 0.69s0.124 0.215 0.124 0.271c0 0.118 0.27 0.747 0.332 0.774 0.023 0.010 0.041 0.061 0.041 0.114s0.103 0.297 0.23 0.542c0.126 0.245 0.285 0.59 0.352 0.766 0.693 2.002 0.748 2.143 0.804 2.284l-0.641-1.857c0.023 0.059 0.096 0.251 0.163 0.427s0.166 0.384 0.22 0.462c0.054 0.078 0.098 0.179 0.098 0.226s0.143 0.412 0.317 0.812l0.317 0.728-0.325-0.034c-0.179-0.019-0.558-0.034-0.843-0.034h-0.518l-0.031-0.258c-0.017-0.142-0.081-0.4-0.143-0.573s-0.168-0.603-0.237-0.955c-0.129-0.663-0.477-2.053-0.561-2.24-0.026-0.059-0.062-0.221-0.078-0.361s-0.064-0.321-0.106-0.402c-0.090-0.174-0.535-1.966-0.619-2.491-0.032-0.2-0.073-0.388-0.091-0.417-0.041-0.066-0.173-0.675-0.17-0.782 0.001-0.044 0.026-0.014 0.056 0.067s0.076 0.133 0.102 0.117zM25.448 11.991c-0.053 0.107-0.152 0.339-0.221 0.515s-0.145 0.347-0.17 0.38c-0.025 0.033-0.103 0.225-0.173 0.427s-0.228 0.583-0.352 0.847c-0.277 0.592-0.599 1.539-0.576 1.697 0.010 0.073 0.054 0.117 0.118 0.117 0.080 0 0.18-0.181 0.471-0.853 0.203-0.469 0.4-0.961 0.438-1.093s0.17-0.48 0.294-0.773c0.248-0.584 0.483-1.235 0.483-1.336 0-0.035-0.049-0.077-0.108-0.093-0.084-0.022-0.129 0.015-0.205 0.167zM31.773 12.058c-0.109 0.063-0.125 0.314-0.027 0.42 0.037 0.040 0.007 0.033-0.065-0.016s-0.187-0.088-0.253-0.088c-0.114 0-0.121 0.021-0.121 0.361 0 0.24 0.028 0.401 0.083 0.48l0.083 0.118 0.264-0.134c0.228-0.115 0.264-0.156 0.264-0.293 0-0.088-0.021-0.159-0.048-0.159s-0.062-0.039-0.081-0.086c-0.024-0.061-0.010-0.077 0.048-0.055 0.066 0.025 0.081-0.025 0.081-0.287 0-0.33-0.036-0.372-0.227-0.261zM27.28 15.36c0.018 0.029-0.006 0.053-0.053 0.053s-0.071-0.024-0.053-0.053c0.018-0.029 0.042-0.053 0.053-0.053s0.035 0.024 0.053 0.053zM4.373 16.801c0 0.027-0.036 0.035-0.080 0.018s-0.066-0.052-0.050-0.079c0.035-0.056 0.129-0.011 0.129 0.061zM19.52 19.625v1.761h2.267c1.623 0 2.267-0.017 2.267-0.059 0-0.038 0.052-0.046 0.147-0.022 0.081 0.020 0.321 0.068 0.533 0.105 0.359 0.063 0.387 0.061 0.387-0.026 0-0.192-0.418-0.443-2.199-1.322-1.922-0.948-2.489-1.3-2.9-1.795-0.114-0.138-0.273-0.285-0.354-0.327l-0.147-0.077v1.761zM18.33 20.543c-0.017 0.043-0.030 0.030-0.032-0.032-0.002-0.056 0.010-0.088 0.028-0.070s0.020 0.064 0.004 0.102zM31.602 24.019c-0.066 0.048-0.088 0.111-0.068 0.19 0.024 0.091 0.001 0.129-0.1 0.167-0.072 0.027-0.146 0.089-0.164 0.138-0.031 0.081-0.040 0.081-0.103-0.006-0.094-0.129-0.329-0.068-0.37 0.097-0.025 0.101-0.059 0.119-0.188 0.1-0.133-0.020-0.167 0.001-0.223 0.135-0.085 0.201-0.33 0.407-0.584 0.489-0.109 0.035-0.211 0.107-0.228 0.159-0.018 0.057-0.151 0.136-0.33 0.197-0.27 0.091-0.31 0.126-0.405 0.342l-0.105 0.24-0.065-0.187c-0.087-0.252-0.256-0.269-0.551-0.055-0.249 0.181-0.277 0.264-0.118 0.363 0.059 0.037 0.107 0.107 0.107 0.156 0 0.071-0.031 0.060-0.15-0.054-0.319-0.305-0.463-0.152-0.401 0.427 0.044 0.41 0.047 0.416 0.189 0.406 0.191-0.013 1.328-0.658 1.36-0.772 0.024-0.087 0.208-0.139 0.601-0.17 0.303-0.024 0.63-0.222 0.65-0.393 0.015-0.128 0.119-0.203 0.83-0.601l0.813-0.455 0-0.41c0-0.364-0.013-0.42-0.118-0.493-0.144-0.101-0.156-0.101-0.28-0.011zM10.024 24.896c-0.598 0.376-0.962 0.546-1.058 0.494-0.132-0.071-0.311-0.014-0.343 0.109-0.020 0.075 0.008 0.111 0.102 0.134 0.191 0.048 0.155 0.127-0.058 0.127-0.116 0-0.227 0.041-0.293 0.107-0.128 0.128-0.16 0.133-0.16 0.027 0-0.086-0.063-0.097-0.253-0.046-0.071 0.019-0.12 0.074-0.12 0.133 0 0.071-0.038 0.1-0.129 0.1-0.071 0-0.167 0.015-0.213 0.032-0.099 0.038-0.113 0.163-0.021 0.193 0.128 0.043-0.004 0.201-0.168 0.201-0.108 0-0.162 0.026-0.162 0.080 0 0.045-0.048 0.080-0.109 0.080-0.182 0-0.42 0.154-0.456 0.294-0.028 0.11-0.065 0.133-0.227 0.133-0.257 0.001-0.303 0.038-0.383 0.306-0.037 0.125-0.082 0.226-0.099 0.226s-0.068-0.079-0.112-0.173c-0.104-0.224-0.216-0.239-0.513-0.064-0.222 0.13-0.242 0.159-0.223 0.317l0.020 0.174-0.173-0.072c-0.095-0.040-0.189-0.072-0.209-0.072-0.043 0 0.016 0.537 0.089 0.811 0.041 0.155 0.073 0.19 0.145 0.164 0.051-0.018 0.452-0.244 0.892-0.501 0.798-0.467 1.093-0.596 1.093-0.479 0 0.034 0.114 0.002 0.267-0.075 0.183-0.093 0.267-0.168 0.267-0.24 0-0.058 0.057-0.142 0.128-0.188s0.14-0.131 0.155-0.188c0.018-0.070 0.073-0.104 0.168-0.104 0.176 0 0.379-0.104 1.449-0.741 0.473-0.282 0.931-0.551 1.019-0.598 0.171-0.093 0.272-0.314 0.144-0.314-0.059 0-0.062-0.026-0.015-0.129 0.078-0.171 0.018-0.404-0.105-0.404-0.052 0-0.202 0.067-0.332 0.149zM30.4 25.41c0 0.013-0.024 0.038-0.053 0.056s-0.053 0.008-0.053-0.023 0.024-0.056 0.053-0.056c0.029 0 0.053 0.011 0.053 0.024zM8.347 26.187c0.018 0.029 0.008 0.053-0.024 0.053s-0.056-0.024-0.056-0.053c0-0.029 0.011-0.053 0.024-0.053s0.038 0.024 0.056 0.053zM6.4 27.467c0 0.029-0.011 0.053-0.024 0.053s-0.038-0.024-0.056-0.053c-0.018-0.029-0.008-0.053 0.024-0.053s0.056 0.024 0.056 0.053zM24.131 28.584c-0.060 0.024-0.141 0.083-0.18 0.13s-0.107 0.086-0.15 0.086c-0.044 0-0.126 0.060-0.184 0.133s-0.158 0.133-0.222 0.133c-0.065 0-0.168 0.035-0.229 0.078-0.082 0.058-0.156 0.066-0.279 0.030-0.092-0.026-0.167-0.027-0.167-0.003s-0.015 0.083-0.032 0.13c-0.023 0.060-0.001 0.084 0.080 0.084 0.062 0 0.112 0.024 0.112 0.053s-0.081 0.053-0.181 0.053c-0.099 0-0.237 0.045-0.305 0.101-0.109 0.089-0.131 0.091-0.183 0.020-0.081-0.111-0.282-0.040-0.321 0.115-0.024 0.096-0.059 0.116-0.162 0.097-0.17-0.033-0.333 0.112-0.304 0.269 0.019 0.103-0.027 0.139-0.362 0.275-0.273 0.111-0.409 0.2-0.47 0.306-0.052 0.092-0.13 0.15-0.201 0.15-0.187 0.001-0.284 0.058-0.284 0.168 0 0.056-0.038 0.117-0.084 0.135s-0.103 0.081-0.125 0.141c-0.037 0.101-0.047 0.097-0.14-0.061-0.125-0.212-0.235-0.213-0.534-0.007l-0.236 0.163 0.17 0.329-0.16-0.114c-0.214-0.153-0.352-0.102-0.308 0.114 0.017 0.087 0.032 0.192 0.032 0.232 0 0.057 0.114 0.073 0.521 0.073 0.422 0 0.556-0.020 0.707-0.106 0.489-0.28 0.906-0.476 0.906-0.428 0 0.030 0.056 0.054 0.126 0.054 0.143 0 0.342-0.173 0.467-0.408 0.061-0.115 0.236-0.241 0.613-0.442 0.433-0.231 1.324-0.742 1.927-1.106 0.066-0.040 0.12-0.106 0.12-0.146 0-0.045 0.083-0.088 0.209-0.109 0.239-0.040 0.327-0.175 0.183-0.279-0.072-0.053-0.079-0.083-0.030-0.132 0.089-0.089 0.081-0.309-0.012-0.309-0.042 0-0.108-0.011-0.147-0.023s-0.12-0.004-0.18 0.021zM23.52 29.387c0 0.029-0.024 0.053-0.053 0.053s-0.053-0.024-0.053-0.053v0c0-0.029 0.024-0.053 0.053-0.053s0.053 0.024 0.053 0.053zM23.040 29.73c0 0.013-0.024 0.038-0.053 0.056s-0.053 0.008-0.053-0.023 0.024-0.056 0.053-0.056c0.029 0 0.053 0.011 0.053 0.024z"></path>
</symbol>
</defs>
</svg>
